<svg xmlns="http://www.w3.org/2000/svg" viewBox="0 0 32 32" width="32" height="32">
  <defs>
    <radialGradient id="iconFlame" cx="50%" cy="50%" r="50%">
      <stop offset="0%" style="stop-color:#ffcc02;stop-opacity:1" />
      <stop offset="70%" style="stop-color:#ff6b35;stop-opacity:1" />
      <stop offset="100%" style="stop-color:#c41e3a;stop-opacity:1" />
    </radialGradient>
  </defs>
  
  <!-- Background Circle -->
  <circle cx="16" cy="16" r="15" fill="#1a1a2e" stroke="url(#iconFlame)" stroke-width="1"/>
  
  <!-- Central Flame -->
  <path d="M16,26 
           Q12,22 13,18 
           Q14,14 12,10 
           Q10,6 13,4 
           Q16,2 19,4 
           Q22,6 20,10 
           Q18,14 19,18 
           Q20,22 16,26 Z" 
        fill="url(#iconFlame)"/>
  
  <!-- Inner Glow -->
  <path d="M16,22 
           Q13,19 14,16 
           Q15,13 13,10 
           Q11,7 14,6 
           Q16,5 18,6 
           Q21,7 19,10 
           Q17,13 18,16 
           Q19,19 16,22 Z" 
        fill="#ffcc02" 
        opacity="0.8"/>
</svg>
