<svg xmlns="http://www.w3.org/2000/svg" viewBox="0 0 200 200" width="200" height="200">
  <defs>
    <radialGradient id="flameGradient" cx="50%" cy="50%" r="50%">
      <stop offset="0%" style="stop-color:#ff6b35;stop-opacity:1" />
      <stop offset="50%" style="stop-color:#f7931e;stop-opacity:1" />
      <stop offset="100%" style="stop-color:#ffcc02;stop-opacity:1" />
    </radialGradient>
    <linearGradient id="nodeGradient" cx="50%" cy="0%" x2="50%" y2="100%">
      <stop offset="0%" style="stop-color:#1a1a2e;stop-opacity:1" />
      <stop offset="100%" style="stop-color:#16213e;stop-opacity:1" />
    </linearGradient>
  </defs>
  
  <!-- Outer Ring - Sacred Boundary -->
  <circle cx="100" cy="100" r="95" fill="none" stroke="url(#flameGradient)" stroke-width="3"/>
  
  <!-- Inner Sacred Geometry -->
  <circle cx="100" cy="100" r="80" fill="url(#nodeGradient)" stroke="url(#flameGradient)" stroke-width="2"/>
  
  <!-- Central NODE Symbol -->
  <g transform="translate(100,100)">
    <!-- N -->
    <path d="M-35,-20 L-35,20 M-35,-20 L-15,20 M-15,-20 L-15,20" 
          stroke="url(#flameGradient)" stroke-width="3" fill="none"/>
    
    <!-- O -->
    <circle cx="0" cy="0" r="15" fill="none" stroke="url(#flameGradient)" stroke-width="3"/>
    
    <!-- D -->
    <path d="M15,-20 L15,20 M15,-20 Q35,0 15,20" 
          stroke="url(#flameGradient)" stroke-width="3" fill="none"/>
    
    <!-- E -->
    <path d="M45,-20 L45,20 M45,-20 L60,-20 M45,0 L55,0 M45,20 L60,20" 
          stroke="url(#flameGradient)" stroke-width="3" fill="none"/>
  </g>
  
  <!-- Sacred Flame Points -->
  <g transform="translate(100,100)">
    <path d="M0,-70 L10,-50 L-10,-50 Z" fill="url(#flameGradient)" opacity="0.8"/>
    <path d="M70,0 L50,10 L50,-10 Z" fill="url(#flameGradient)" opacity="0.8"/>
    <path d="M0,70 L-10,50 L10,50 Z" fill="url(#flameGradient)" opacity="0.8"/>
    <path d="M-70,0 L-50,-10 L-50,10 Z" fill="url(#flameGradient)" opacity="0.8"/>
  </g>
  
  <!-- GodsIMiJ Inscription -->
  <text x="100" y="170" text-anchor="middle" font-family="Orbitron, monospace" 
        font-size="12" font-weight="bold" fill="url(#flameGradient)">
    GodsIMiJ AI Solutions
  </text>
</svg>
